<svg width="204" height="227" viewBox="0 0 204 227" fill="none" xmlns="http://www.w3.org/2000/svg">
<path d="M102.249 1L202 97.9796C190.03 97.818 163.097 97.5917 151.127 97.9796C139.157 98.3676 127.852 91.3527 123.696 87.7968C123.696 77.6139 116.145 72.8176 109.731 73.7347C92.7731 76.1592 95.2668 94.1004 102.249 97.4947L108.733 100.404L201.501 141.136C183.879 158.915 141.651 199.808 140.155 201.263C138.883 202.499 116.214 226.478 102.249 225.993C89.0846 225.536 74.818 211.931 66.8379 204.657L2 141.62H44.8928C66.3392 141.62 72.2244 144.336 83.7955 153.258C82.798 163.926 95.2668 169.745 102.249 165.865C118.2 157.004 108.234 142.59 102.249 141.136L2 97.9796L102.249 1Z" fill="url(#paint0_linear_2_20)" stroke="black"/>
<defs>
<linearGradient id="paint0_linear_2_20" x1="103.746" y1="228.417" x2="101.86" y2="3.90846" gradientUnits="userSpaceOnUse">
<stop stop-color="#FD9200"/>
<stop offset="0.340141" stop-color="#FFBF69"/>
<stop offset="0.51855" stop-color="white"/>
<stop offset="0.63537" stop-color="#CBF3F0"/>
<stop offset="1" stop-color="#00C7B4"/>
</linearGradient>
</defs>
</svg>
